<?xml version="1.0" standalone="yes"?>
<svg xmlns="http://www.w3.org/2000/svg" width="154" height="162">
<path style="fill:#fefeff; stroke:none;" d="M0 0L0 20L1 20C2.70531 10.4393 10.4393 2.70529 20 1L0 0z"/>
<path style="fill:#a3d5f0; stroke:none;" d="M20 0L20 1L24 1L20 0z"/>
<path style="fill:#fefeff; stroke:none;" d="M24 0C24 28.3866 25 56.653 25 85C25 95.1322 21.8557 111.516 28.419 119.985C34.0513 127.252 41.6611 127 50 127L92 127C98.9527 127 107.285 128.228 114 126.2C120.862 124.127 125.453 117.935 126.671 111C129.987 92.1245 127.001 70.1754 127 51C126.999 42.368 126.389 34.1499 118.985 28.419C108.028 19.9386 81.3372 25 68 25C63.5835 25 53.9925 26.7857 50.6034 23.3966C46.5296 19.3228 48.7878 5.09171 50 0L24 0z"/>
<path style="fill:#a3d5f0; stroke:none;" d="M110 25L110 24L50 24L50 1L117 1C104.355 -4.30615 81.7766 0 68 0C63.3467 0 55.5639 -1.48593 51.3179 0.603394C47.4722 2.49571 47.3593 21.4028 50.6034 23.9722C54 26.6623 62.8748 25 67 25L110 25z"/>
<path style="fill:#fefeff; stroke:none;" d="M117 0L117 1C148.748 3.59665 149.984 33.892 151.039 58C151.671 72.4142 152.543 86.5694 151.17 101C150.082 112.426 152.07 122.724 145.451 133C128.123 159.901 89.3159 152 62 152C37.6068 152 5.69999 151.356 1 120L0 120L0 162L154 162L154 0L117 0z"/>
<path style="fill:#a3d5f0; stroke:none;" d="M16 1L17 2L16 1z"/>
<path style="fill:#59c0dd; stroke:none;" d="M0 65L1 65L1 33L2 33L2 36L23 36L24 1C-7.63285 1.28281 0 43.9668 0 65M50 1L51.0278 22.3966L67 24L116 25L116 27L118 26L119 29L123 33C129.243 33 145.375 41.6939 151 33C147.915 33 149.55 30.4422 150 28L148 23L146 23C145.155 12.8904 132.931 5.10153 124 2.4398C102.271 -4.03627 72.6347 1 50 1z"/>
<path style="fill:#a3d5f0; stroke:none;" d="M120.667 1.33333L121.333 1.66667L120.667 1.33333M14 2L15 3L14 2M124.667 2.33333L125.333 2.66667L124.667 2.33333M12 3L13 4L12 3M127 3L128 4L127 3M10 4L11 5L10 4M129 4L130 5L129 4M9 5L10 6L9 5M131 5L132 6L131 5M133 6L134 7L133 6M134 7L135 8L134 7M5 9L6 10L5 9M137 9L138 10L137 9M4 10L5 11L4 10M138 10L139 11L138 10M139 11L140 12L139 11M3 12L4 13L3 12M140 12L141 13L140 12M1 16L2 17L1 16M143 16L144 17L143 16M145 19L146 20L145 19M0.333333 20.6667L0.666667 21.3333L0.333333 20.6667z"/>
<path style="fill:#22aee7; stroke:none;" d="M146 22L147 23L146 22M50 23L51 24L50 23M23 24L23 36C17.1814 36 5.4772 38.3635 2 33L1 33L1 118L26 118C21.6246 96.79 24 73.6327 24 52C24 43.7293 26.2056 31.6394 23 24M112 24L113 25L112 24M147 24L148 25L147 24z"/>
<path style="fill:#a3d5f0; stroke:none;" d="M113 25L114 26L113 25z"/>
<path style="fill:#22aee7; stroke:none;" d="M115 25L116 26L115 25z"/>
<path style="fill:#a3d5f0; stroke:none;" d="M148 25L149 26L148 25z"/>
<path style="fill:#22aee7; stroke:none;" d="M117 26L118 27L117 26M148 27L149 28L148 27z"/>
<path style="fill:#a3d5f0; stroke:none;" d="M149 27L150 28L149 27z"/>
<path style="fill:#22aee7; stroke:none;" d="M120 28L124 32L120 28z"/>
<path style="fill:#a3d5f0; stroke:none;" d="M120 29L121 30L120 29M121 30L122 31L121 30z"/>
<path style="fill:#22aee7; stroke:none;" d="M149 30L149 34L150 34L149 30z"/>
<path style="fill:#a3d5f0; stroke:none;" d="M122 31L123 32L122 31M150.333 31.6667L150.667 32.3333L150.333 31.6667z"/>
<path style="fill:#22aee7; stroke:none;" d="M124 32C129.092 49.8538 127 69.4219 127 88C127 97.5612 128.313 107.909 125 117L151 118L151 34C142.896 37.4341 130.935 37.7253 124 32z"/>
<path style="fill:#a3d5f0; stroke:none;" d="M124 34L125 35L124 34M125 36L126 37L125 36z"/>
<path style="fill:#59c0dd; stroke:none;" d="M126 38L127 39L126 38z"/>
<path style="fill:#a3d5f0; stroke:none;" d="M126.333 39.6667L126.667 40.3333L126.333 39.6667M57.6667 48.3333L58.3333 48.6667L57.6667 48.3333z"/>
<path style="fill:#59c0dd; stroke:none;" d="M48 57C49.9671 61.8935 54.34 60.9997 59 61L89 61C91.9162 61 99.788 62.3761 101.596 59.436C105.318 53.3855 92.965 48.4202 89 48.0934C73.2157 46.7922 59.6217 46.2261 48 57z"/>
<path style="fill:#a3d5f0; stroke:none;" d="M92.6667 48.3333L93.3333 48.6667L92.6667 48.3333M55 49L56 50L55 49M95 49L96 50L95 49M53 50L54 51L53 50M97 50L98 51L97 50M52 51L53 52L52 51M98 51L99 52L98 51M51 52L52 53L51 52M99 52L100 53L99 52M50 53L51 54L50 53M100 53L101 54L100 53M24 55L24 111L25 111L25 73L24 55z"/>
<path style="fill:#22aee7; stroke:none;" d="M49 56L50 57L49 56M101 56L102 57L101 56z"/>
<path style="fill:#a3d5f0; stroke:none;" d="M102 57L103 58L102 57z"/>
<path style="fill:#22aee7; stroke:none;" d="M48 59L48 91L103 91L103 59L102 59C98.1121 61.9455 92.7157 61 88 61C76.7027 61 58.0032 64.5631 48 59z"/>
<path style="fill:#a3d5f0; stroke:none;" d="M47 60L47 92L48 92L47 60M103 61L103 91L104 91L103 61M151 62L151 99L152 99C152 88.3512 155.111 71.7978 151 62z"/>
<path style="fill:#59c0dd; stroke:none;" d="M0 73L0 111L1 111C1 100.089 4.21126 83.0359 0 73z"/>
<path style="fill:#4987f2; stroke:none;" d="M48 91C51.5335 110.509 99.4665 110.509 103 91L48 91z"/>
<path style="fill:#59c0dd; stroke:none;" d="M48 94L49 95L48 94z"/>
<path style="fill:#a3d5f0; stroke:none;" d="M102 94L103 95L102 94z"/>
<path style="fill:#59c0dd; stroke:none;" d="M49 96L50 97L49 96M101 96L102 97L101 96z"/>
<path style="fill:#a3d5f0; stroke:none;" d="M50 98L51 99L50 98M100 98L101 99L100 98M51 99L52 100L51 99M99 99L100 100L99 99M52 100L53 101L52 100M98 100L99 101L98 100M55 102L56 103L55 102M95 102L96 103L95 102M58 103L59 104L58 103z"/>
<path style="fill:#59c0dd; stroke:none;" d="M59 103L60 104L59 103M91 103L92 104L91 103z"/>
<path style="fill:#a3d5f0; stroke:none;" d="M92 103L93 104L92 103z"/>
<path style="fill:#59c0dd; stroke:none;" d="M24 111L25 112L24 111z"/>
<path style="fill:#a3d5f0; stroke:none;" d="M126 112L127 113L126 112z"/>
<path style="fill:#59c0dd; stroke:none;" d="M0 113L0 117L1 117L0 113M126 113L127 114L126 113z"/>
<path style="fill:#a3d5f0; stroke:none;" d="M25 114L26 115L25 114z"/>
<path style="fill:#59c0dd; stroke:none;" d="M25 115L26 116L25 115z"/>
<path style="fill:#a3d5f0; stroke:none;" d="M125 115L126 116L125 115M0 117L0 120L1 120L0 117z"/>
<path style="fill:#59c0dd; stroke:none;" d="M26 117L27 118L26 117z"/>
<path style="fill:#a3d5f0; stroke:none;" d="M124 117L125 118L124 117z"/>
<path style="fill:#4987f2; stroke:none;" d="M125 117C115.041 130.033 101.835 128 87 128C72.5283 128 56.271 130.076 42 127.674C34.9643 126.49 31.8579 121.026 25.8302 118.603C19.1482 115.916 8.16738 118 1 118C4.50166 160.814 59.5501 152 89 152C100.597 152 113.944 153.744 125 149.532C138.425 144.419 149.357 132.743 150 118L125 117z"/>
<path style="fill:#59c0dd; stroke:none;" d="M150 118L151 119L150 118M123 119L124 120L123 119z"/>
<path style="fill:#a3d5f0; stroke:none;" d="M150.333 119.667L150.667 120.333L150.333 119.667z"/>
<path style="fill:#59c0dd; stroke:none;" d="M28 120L29 121L28 120z"/>
<path style="fill:#a3d5f0; stroke:none;" d="M122 120L123 121L122 120M29 121L30 122L29 121z"/>
<path style="fill:#59c0dd; stroke:none;" d="M1 122L2 123L1 122z"/>
<path style="fill:#a3d5f0; stroke:none;" d="M30 122L31 123L30 122M1 123L2 124L1 123z"/>
<path style="fill:#59c0dd; stroke:none;" d="M31 123L32 124L31 123z"/>
<path style="fill:#a3d5f0; stroke:none;" d="M119 123L120 124L119 123z"/>
<path style="fill:#59c0dd; stroke:none;" d="M149 123L150 124L149 123M118 124L119 125L118 124z"/>
<path style="fill:#a3d5f0; stroke:none;" d="M149 124L150 125L149 124z"/>
<path style="fill:#59c0dd; stroke:none;" d="M34 125L35 126L34 125z"/>
<path style="fill:#a3d5f0; stroke:none;" d="M116 125L117 126L116 125M2 126L3 127L2 126M37 126L38 127L37 126M113 126L114 127L113 126z"/>
<path style="fill:#59c0dd; stroke:none;" d="M114 126L115 127L114 126z"/>
<path style="fill:#a3d5f0; stroke:none;" d="M40 127L40 128L110 128L88 127L40 127z"/>
<path style="fill:#59c0dd; stroke:none;" d="M110 127L111 128L110 127z"/>
<path style="fill:#a3d5f0; stroke:none;" d="M148 127L149 128L148 127M3 128L4 129L3 128M147 129L148 130L147 129M4 130L5 131L4 130M146 131L147 132L146 131M5 132L6 133L5 132M145 133L146 134L145 133z"/>
<path style="fill:#59c0dd; stroke:none;" d="M144 134L145 135L144 134z"/>
<path style="fill:#a3d5f0; stroke:none;" d="M7 135L8 136L7 135z"/>
<path style="fill:#59c0dd; stroke:none;" d="M8 136L9 137L8 136z"/>
<path style="fill:#a3d5f0; stroke:none;" d="M142 137L143 138L142 137M141 138L142 139L141 138M140 139L141 140L140 139M139 140L140 141L139 140M138 141L139 142L138 141M137 142L138 143L137 142z"/>
<path style="fill:#59c0dd; stroke:none;" d="M16 144L17 145L16 144z"/>
<path style="fill:#a3d5f0; stroke:none;" d="M134 144L135 145L134 144M17 145L18 146L17 145M19 146L20 147L19 146M131 146L132 147L131 146z"/>
<path style="fill:#59c0dd; stroke:none;" d="M21 147L22 148L21 147z"/>
<path style="fill:#a3d5f0; stroke:none;" d="M129 147L130 148L129 147z"/>
<path style="fill:#59c0dd; stroke:none;" d="M23 148L24 149L23 148z"/>
<path style="fill:#a3d5f0; stroke:none;" d="M127 148L128 149L127 148M25 149L26 150L25 149M125 149L126 150L125 149M28 150L29 151L28 150z"/>
<path style="fill:#59c0dd; stroke:none;" d="M29 150L30 151L29 150z"/>
<path style="fill:#a3d5f0; stroke:none;" d="M122 150L123 151L122 150M33.6667 151.333L34.3333 151.667L33.6667 151.333z"/>
<path style="fill:#59c0dd; stroke:none;" d="M116 151L117 152L116 151z"/>
<path style="fill:#a3d5f0; stroke:none;" d="M117.667 151.333L118.333 151.667L117.667 151.333z"/>
</svg>
